<?xml version="1.0" encoding="UTF-8"?>
<svg viewBox="0 0 30 30" version="1.1" xmlns="http://www.w3.org/2000/svg" xmlns:xlink="http://www.w3.org/1999/xlink">
    <!-- Generator: Sketch 50 (54983) - http://www.bohemiancoding.com/sketch -->
    <title>ic_company</title>
    <desc>Created with Sketch.</desc>
    <defs></defs>
    <g id="credit" stroke="none" stroke-width="1" fill="none" fill-rule="evenodd">
        <g id="home" transform="translate(-1101.000000, -3055.000000)">
            <g id="fenbu" transform="translate(0.000000, 2375.000000)">
                <g id="ic_company" transform="translate(1101.000000, 680.000000)">
                    <circle id="Oval" fill="#CCCCCC" fill-rule="nonzero" cx="15" cy="15" r="15"></circle>
                    <g id="office" transform="translate(7.000000, 6.000000)" fill-rule="nonzero">
                        <g id="XMLID_1339_" transform="translate(0.000000, 16.000000)">
                            <rect id="XMLID_1340_" fill="#E7E7E7" x="0" y="1" width="16" height="1"></rect>
                            <rect id="XMLID_1340_" fill="#FFFFFF" x="0" y="0" width="16" height="1"></rect>
                        </g>
                        <g id="XMLID_1341_" transform="translate(1.000000, 0.000000)" fill="#FFFFFF">
                            <path d="M8,6.5 L14,6.5 L14,17 L8,17 L0,17 L0,0 L8,0 L8,6.5 Z M1,2 L1,4 L2,4 L2,2 L1,2 Z M3.4,2 L3.4,4 L4.4,4 L4.4,2 L3.4,2 Z M5.8,2 L5.8,4 L6.8,4 L6.8,2 L5.8,2 Z M1,5 L1,7 L2,7 L2,5 L1,5 Z M3.4,5 L3.4,7 L4.4,7 L4.4,5 L3.4,5 Z M5.8,5 L5.8,7 L6.8,7 L6.8,5 L5.8,5 Z M1,8 L1,10 L2,10 L2,8 L1,8 Z M3.4,8 L3.4,10 L4.4,10 L4.4,8 L3.4,8 Z M5.8,8 L5.8,10 L6.8,10 L6.8,8 L5.8,8 Z M9.4,8 L9.4,10 L10.4,10 L10.4,8 L9.4,8 Z M11.8,8 L11.8,10 L12.8,10 L12.8,8 L11.8,8 Z M9.4,11 L9.4,13 L10.4,13 L10.4,11 L9.4,11 Z M11.8,11 L11.8,13 L12.8,13 L12.8,11 L11.8,11 Z M2,13 L2,16 L6,16 L6,13 L2,13 Z" id="Combined-Shape"></path>
                        </g>
                    </g>
                    <g id="Group-5" transform="translate(9.000000, 8.000000)">
                        <rect id="Rectangle-5" fill="#B4B1B1" x="0" y="0" width="1" height="1"></rect>
                        <rect id="Rectangle-5" fill="#B4B1B1" x="0" y="3" width="1" height="1"></rect>
                        <rect id="Rectangle-5" fill="#B4B1B1" x="0" y="6" width="1" height="1"></rect>
                        <rect id="Rectangle-5" fill="#E7E7E7" x="0" y="8" width="1" height="1"></rect>
                        <rect id="Rectangle-5" fill="#E7E7E7" x="0" y="5" width="1" height="1"></rect>
                        <rect id="Rectangle-5" fill="#E7E7E7" x="0" y="2" width="1" height="1"></rect>
                        <rect id="Rectangle-5" fill="#B4B1B1" x="2.40002441" y="0" width="1" height="1"></rect>
                        <rect id="Rectangle-5" fill="#B4B1B1" x="2.40002441" y="3" width="1" height="1"></rect>
                        <rect id="Rectangle-5" fill="#B4B1B1" x="2.40002441" y="6" width="1" height="1"></rect>
                        <rect id="Rectangle-5" fill="#E7E7E7" x="2.40002441" y="8" width="1" height="1"></rect>
                        <rect id="Rectangle-5" fill="#E7E7E7" x="8.40002441" y="8" width="1" height="1"></rect>
                        <rect id="Rectangle-5" fill="#E7E7E7" x="8.40002441" y="11" width="1" height="1"></rect>
                        <rect id="Rectangle-5" fill="#E7E7E7" x="2.40002441" y="5" width="1" height="1"></rect>
                        <rect id="Rectangle-5" fill="#E7E7E7" x="2.40002441" y="2" width="1" height="1"></rect>
                        <rect id="Rectangle-5" fill="#B4B1B1" x="4.80004883" y="0" width="1" height="1"></rect>
                        <rect id="Rectangle-5" fill="#B4B1B1" x="4.80004883" y="3" width="1" height="1"></rect>
                        <rect id="Rectangle-5" fill="#B4B1B1" x="4.80004883" y="6" width="1" height="1"></rect>
                        <rect id="Rectangle-5" fill="#E7E7E7" x="4.80004883" y="8" width="1" height="1"></rect>
                        <rect id="Rectangle-5" fill="#E7E7E7" x="10.8000488" y="8" width="1" height="1"></rect>
                        <rect id="Rectangle-5" fill="#E7E7E7" x="10.8000488" y="11" width="1" height="1"></rect>
                        <rect id="Rectangle-5" fill="#E7E7E7" x="4.80004883" y="5" width="1" height="1"></rect>
                        <rect id="Rectangle-5" fill="#E7E7E7" x="4.80004883" y="2" width="1" height="1"></rect>
                        <rect id="Rectangle-5" fill="#B4B1B1" x="8.40002441" y="6" width="1" height="1"></rect>
                        <rect id="Rectangle-5" fill="#B4B1B1" x="10.8000488" y="6" width="1" height="1"></rect>
                        <rect id="Rectangle-5" fill="#B4B1B1" x="8.40002441" y="9" width="1" height="1"></rect>
                        <rect id="Rectangle-5" fill="#B4B1B1" x="10.8000488" y="9" width="1" height="1"></rect>
                    </g>
                </g>
            </g>
        </g>
    </g>
</svg>