<?xml version="1.0" encoding="UTF-8"?>
<svg width="30px" height="30px" viewBox="0 0 30 30" version="1.1" xmlns="http://www.w3.org/2000/svg" xmlns:xlink="http://www.w3.org/1999/xlink">
    <!-- Generator: Sketch 50 (54983) - http://www.bohemiancoding.com/sketch -->
    <title>ic_government</title>
    <desc>Created with Sketch.</desc>
    <defs></defs>
    <g id="credit" stroke="none" stroke-width="1" fill="none" fill-rule="evenodd">
        <g id="home" transform="translate(-743.000000, -3045.000000)" fill-rule="nonzero">
            <g id="fenbu" transform="translate(0.000000, 2375.000000)">
                <g id="ic_government" transform="translate(743.000000, 670.000000)">
                    <circle id="Oval" fill="#CCCCCC" cx="15" cy="15" r="15"></circle>
                    <g id="gov" transform="translate(6.000000, 7.000000)">
                        <rect id="Rectangle-path" fill="#FFFFFF" x="1.92778905" y="5.44142539" width="1.168357" height="8.26726058"></rect>
                        <rect id="Rectangle-path" fill="#FFFFFF" x="14.779716" y="5.44142539" width="1.168357" height="8.26726058"></rect>
                        <rect id="Rectangle-path" fill="#CCCCCC" x="2.2198783" y="5.44142539" width="13.1440162" height="8.26726058"></rect>
                        <path d="M17.9926978,4.87126949 C17.9926978,5.18485523 17.7298174,5.44142539 17.4085193,5.44142539 L0.584178499,5.44142539 C0.262880325,5.44142539 0,5.18485523 0,4.87126949 C0,4.55768374 0.292089249,4.30111359 0.613387424,4.30111359 L17.4085193,4.30111359 C17.7298174,4.30111359 17.9926978,4.55768374 17.9926978,4.87126949 Z" id="Shape" fill="#FFFFFF"></path>
                        <path d="M17.9926978,4.87126949 C17.9926978,5.18485523 17.7298174,5.44142539 17.4085193,5.44142539 L0.584178499,5.44142539 C0.262880325,5.44142539 0,5.18485523 0,4.87126949" id="Shape" fill="#C6C2C2"></path>
                        <path d="M16.8243408,14.2788419 C16.8243408,14.5924276 16.5614604,14.8489978 16.2401623,14.8489978 L1.92778905,14.8489978 C1.60649087,14.8489978 1.34361055,14.5924276 1.34361055,14.2788419 C1.34361055,13.9652561 1.60649087,13.708686 1.92778905,13.708686 L16.2401623,13.708686 C16.5614604,13.708686 16.8243408,13.9652561 16.8243408,14.2788419 Z" id="Shape" fill="#FFFFFF"></path>
                        <path d="M16.8243408,14.2788419 C16.8243408,14.5924276 16.5614604,14.8489978 16.2401623,14.8489978 L1.92778905,14.8489978 C1.60649087,14.8489978 1.34361055,14.5924276 1.34361055,14.2788419" id="Shape" fill="#C6C2C2"></path>
                        <path d="M17.11643,15.4191537 C17.11643,15.7327394 16.8535497,15.9893096 16.5322515,15.9893096 L1.0515213,15.9893096 C0.730223124,15.9893096 0.467342799,15.7327394 0.467342799,15.4191537 C0.467342799,15.1055679 0.730223124,14.8489978 1.0515213,14.8489978 L16.5322515,14.8489978 C16.8535497,14.8489978 17.11643,15.1055679 17.11643,15.4191537 Z" id="Shape" fill="#FFFFFF"></path>
                        <path d="M17.11643,15.4191537 C17.11643,15.7612472 16.8827586,15.9893096 16.5322515,15.9893096 L1.0515213,15.9893096 C0.701014199,15.9893096 0.467342799,15.7612472 0.467342799,15.4191537" id="Shape" fill="#C6C2C2"></path>
                        <path d="M17.4662642,4.30111359 L10.4567951,0.623608018 C9.60973631,-0.20311804 8.26612576,-0.20311804 7.41906694,0.623608018 L0.500177557,4.30111359 L0.788640974,4.30111359 L17.4662642,4.30111359 Z" id="Shape" fill="#FFFFFF"></path>
                        <rect id="Rectangle-path" fill="#FFFFFF" x="3.09614604" y="6.01158129" width="1.46044625" height="7.12694878"></rect>
                        <g id="Group" transform="translate(2.774848, 5.986637)" fill="#FFFFFF">
                            <path d="M2.07383367,7.01259364 C2.07383367,7.10006074 2.01541582,7.15837214 1.92778905,7.15837214 L0.17525355,7.15837214 C0.0876267748,7.15837214 0.0292089249,7.10006074 0.0292089249,7.01259364 C0.0292089249,6.92512654 0.0876267748,6.86681514 0.17525355,6.86681514 L1.92778905,6.86681514 C2.01541582,6.86681514 2.07383367,6.92512654 2.07383367,7.01259364 Z" id="Shape"></path>
                            <rect id="Rectangle-path" x="5.28681542" y="0.0249443207" width="1.46044625" height="7.12694878"></rect>
                        </g>
                        <g id="Group" transform="translate(7.703854, 5.986637)" fill="#FFFFFF">
                            <path d="M2.16876268,7.01259364 C2.16876268,7.10006074 2.0811359,7.15837214 1.99350913,7.15837214 L0.182555781,7.15837214 C0.0949290061,7.15837214 0.00730223124,7.10006074 0.00730223124,7.01259364 C0.00730223124,6.92512654 0.0949290061,6.86681514 0.182555781,6.86681514 L1.99350913,6.86681514 C2.0811359,6.86681514 2.16876268,6.92512654 2.16876268,7.01259364 Z" id="Shape"></path>
                            <rect id="Rectangle-path" x="5.32332657" y="0.0249443207" width="1.46044625" height="7.12694878"></rect>
                        </g>
                        <path d="M14.779716,12.9992306 C14.779716,13.0866977 14.7212982,13.1450091 14.6336714,13.1450091 L12.8811359,13.1450091 C12.7935091,13.1450091 12.7350913,13.0866977 12.7350913,12.9992306 C12.7350913,12.9117635 12.7935091,12.8534521 12.8811359,12.8534521 L14.6336714,12.8534521 C14.7212982,12.8534521 14.779716,12.9117635 14.779716,12.9992306 Z" id="Shape" fill="#FFFFFF"></path>
                    </g>
                </g>
            </g>
        </g>
    </g>
</svg>