<?xml version="1.0" encoding="UTF-8"?>
<svg width="30px" height="30px" viewBox="0 0 30 30" version="1.1" xmlns="http://www.w3.org/2000/svg" xmlns:xlink="http://www.w3.org/1999/xlink">
    <!-- Generator: Sketch 50 (54983) - http://www.bohemiancoding.com/sketch -->
    <title>ic_school</title>
    <desc>Created with Sketch.</desc>
    <defs></defs>
    <g id="credit" stroke="none" stroke-width="1" fill="none" fill-rule="evenodd">
        <g id="home" transform="translate(-914.000000, -3095.000000)" fill-rule="nonzero">
            <g id="fenbu" transform="translate(0.000000, 2375.000000)">
                <g id="ic_school" transform="translate(914.000000, 720.000000)">
                    <circle id="Oval" fill="#CCCCCC" cx="15" cy="15" r="15"></circle>
                    <path d="M8,14 L8,19.4781491 C8.27425,20.8663239 11.77125,22 16,22 C20.22875,22 23.68725,20.8663239 23.9615,19.4781491 L24,14 L8,14 Z" id="Shape" fill="#FFFFFF"></path>
                    <path d="M23.78022,14.5619966 L15.55746,13.0634182 C15.25488,12.9788606 14.75592,12.9788606 14.45334,13.0634182 L8.22104,15.5619966 C8,15.5 8,15.6323754 8,15.6790368 L8,15.8754787 C8,15.9252337 8.10638,15.9306474 8.19944,15.9762776 L12.92028,17.8685107 C13.21206,18.0118463 13.6995,18.042782 13.99884,17.9376005 C13.99884,17.9376005 23.99982,14.9187887 23.99982,14.8759943 L24,14.6713029 C24,14.6297974 23.8857,14.5913856 23.78022,14.5619966 Z" id="Shape" fill="#CCCCCC"></path>
                    <path d="M26.5202352,13.2157939 L26.5202352,13.5404181 L15.700687,12.063236 C15.297243,11.9789213 14.7128371,11.9789213 14.3096331,12.063236 L3.7200072,13.5007103 L3.7200072,13.4736368 L3,13.4736368 L3,13.6788797 L3,13.7160091 L3,13.8302335 C3,13.8799972 3.14184142,13.9305344 3.26592266,13.9759148 L12.2271323,16.8686546 C12.6161762,17.0120152 13.2661027,17.0426985 13.6652267,16.9374986 L26.7124771,13.9073286 C26.8490385,13.8709727 27,13.8292022 27,13.7861424 L27,13.7160091 L27,13.6711445 L27,13.4736368 L26.5202352,13.2157939 Z" id="Shape" fill="#CCCCCC"></path>
                    <path d="M26.70696,13.5619966 L15.74328,12.0634182 C15.33984,11.9788606 14.67456,11.9788606 14.27112,12.0634182 L3.29472,13.5619966 C3.1572,13.59087 3,13.6323754 3,13.6790368 L3,13.8754787 C3,13.9252337 3.14184,13.9306474 3.26592,13.9762776 L12.22704,16.8685107 C12.61608,17.0118463 13.266,17.042782 13.66512,16.9376005 C13.66512,16.9376005 26.99976,13.9187887 26.99976,13.8759943 L27,13.6713029 C27,13.6297974 26.8476,13.5913856 26.70696,13.5619966 Z" id="Shape" fill="#FFFFFF"></path>
                    <path d="M18.4448376,23 C18.2540838,23 18.1117402,22.8358263 18.1117402,22.632732 L18.1117402,16.1016362 L14.2249372,14.7163023 C14.0437322,14.6521425 13.9589033,14.4440947 14.019305,14.2513793 C14.0797067,14.0586638 14.2826741,13.9544041 14.4632129,14.0192716 L18.5771883,15.4885794 C18.7186437,15.5388222 19,15.6914378 19,15.8494786 L19,22.6900513 C19,22.8929097 18.6355914,23 18.4448376,23 Z" id="Shape" fill="#CCCCCC"></path>
                    <path d="M20,24 C20,24 20,23.2466732 20,23.0911892 C20,22.488864 19.5375,22 19,22 C18.4625,22 18,22.4885838 18,23.0911892 C18,23.2466732 18,24 18,24 L20,24 Z" id="Shape" fill="#FFFFFF"></path>
                    <rect id="Rectangle-path" fill="#FFFFFF" x="18" y="23" width="2" height="2"></rect>
                </g>
            </g>
        </g>
    </g>
</svg>