<?xml version="1.0" encoding="UTF-8"?>
<svg width="108px" height="108px" viewBox="0 0 108 108" version="1.1" xmlns="http://www.w3.org/2000/svg" xmlns:xlink="http://www.w3.org/1999/xlink">
    <!-- Generator: Sketch 50 (54983) - http://www.bohemiancoding.com/sketch -->
    <title>ic_jishu_home_part02</title>
    <desc>Created with Sketch.</desc>
    <defs></defs>
    <g id="credit" stroke="none" stroke-width="1" fill="none" fill-rule="evenodd">
        <g id="home" transform="translate(-599.000000, -1749.000000)" fill="#FFFFFF" stroke="#377EE8" stroke-width="1.6">
            <g id="youshi" transform="translate(0.000000, 1600.000000)">
                <g id="Group-4" transform="translate(600.000000, 150.000000)">
                    <g id="ic_jishu_home_part02">
                        <polygon id="Rectangle-27-Copy" points="0 45.129077 53 33.1755725 106 45.129077 106 61.6800833 53 73.6335878 0 61.6800833"></polygon>
                        <polygon id="Rectangle-27-Copy-2" transform="translate(52.190840, 53.000000) rotate(-90.000000) translate(-52.190840, -53.000000) " points="-0.809160305 44.7244969 52.1908397 32.7709924 105.19084 44.7244969 105.19084 61.2755031 52.1908397 73.2290076 -0.809160305 61.2755031"></polygon>
                        <polygon id="Rectangle-27-Copy-3" transform="translate(52.994468, 54.208209) rotate(-45.000000) translate(-52.994468, -54.208209) " points="-0.00553166471 45.9327057 52.9944683 33.9792012 105.994468 45.9327057 105.994468 62.4837119 52.9944683 74.4372164 -0.00553166471 62.4837119"></polygon>
                        <polygon id="Rectangle-27-Copy-4" transform="translate(52.994468, 54.208209) rotate(-315.000000) translate(-52.994468, -54.208209) " points="-0.00553166471 45.9327057 52.9944683 33.9792012 105.994468 45.9327057 105.994468 62.4837119 52.9944683 74.4372164 -0.00553166471 62.4837119"></polygon>
                    </g>
                </g>
            </g>
        </g>
    </g>
</svg>