<?xml version="1.0" encoding="UTF-8"?>
<svg width="163px" height="1708px" viewBox="0 0 163 1708" version="1.1" xmlns="http://www.w3.org/2000/svg" xmlns:xlink="http://www.w3.org/1999/xlink">
    <!-- Generator: Sketch 50 (54983) - http://www.bohemiancoding.com/sketch -->
    <title>img_timeline_milestones</title>
    <desc>Created with Sketch.</desc>
    <defs></defs>
    <g id="credit" stroke="none" stroke-width="1" fill="none" fill-rule="evenodd">
        <g id="milestones" transform="translate(-879.000000, -719.000000)">
            <g id="img_timeline_milestones" transform="translate(880.000000, 720.000000)">
                <g id="Group-9" transform="translate(80.000000, 87.000000)" stroke="#DEDEDE" stroke-linecap="round" stroke-linejoin="round">
                    <path d="M0,1375.25845 L0,900.926524 L0,900.926524 L0,1375.25845 L0,1375.25845 Z M0,1408.2076 L0,1620 L0,1408.2076 L0,1408.2076 Z M0,666.723841 L0,867.92143 L0,867.92143 L0,666.723841 L0,666.723841 Z M0,633.719772 L0,519.450487 L0,519.450487 L0,633.719772 L0,633.719772 Z M0,486.445393 L0,373.297313 L0,373.297313 L0,486.445393 L0,486.445393 Z M0,340.29222 L0,139.775906 L0,139.775906 L0,340.29222 L0,340.29222 Z M0,106.770813 L0,0 L0,106.770813 L0,106.770813 Z" id="Combined-Shape"></path>
                </g>
                <text id="3月" font-family="SourceHanSansCN-Medium, Source Han Sans CN" font-size="24" font-weight="400" fill="#4285F4">
                    <tspan x="61" y="219">3月</tspan>
                </text>
                <text id="4月" font-family="SourceHanSansCN-Medium, Source Han Sans CN" font-size="24" font-weight="400" fill="#4285F4">
                    <tspan x="61" y="454">4月</tspan>
                </text>
                <text id="5月" font-family="SourceHanSansCN-Medium, Source Han Sans CN" font-size="24" font-weight="400" fill="#4285F4">
                    <tspan x="61" y="600">5月</tspan>
                </text>
                <text id="6月" font-family="SourceHanSansCN-Medium, Source Han Sans CN" font-size="24" font-weight="400" fill="#4285F4">
                    <tspan x="62" y="746">6月</tspan>
                </text>
                <text id="7月" font-family="SourceHanSansCN-Medium, Source Han Sans CN" font-size="24" font-weight="400" fill="#4285F4">
                    <tspan x="62" y="982">7月</tspan>
                </text>
                <text id="8月" font-family="SourceHanSansCN-Medium, Source Han Sans CN" font-size="24" font-weight="400" fill="#4285F4">
                    <tspan x="61" y="1488">8月</tspan>
                </text>
                <g id="Group-3" transform="translate(66.000000, 605.000000)"></g>
                <g id="Group-3" transform="translate(76.000000, 848.000000)"></g>
                <g id="Group-3" transform="translate(73.000000, 1084.000000)"></g>
                <g id="Group-3" transform="translate(75.000000, 1656.000000)"></g>
                <g id="Group-3" transform="translate(76.000000, 274.000000)"></g>
                <path d="M0,136 L80,136" id="Line-6" stroke="#DEDEDE" stroke-linecap="square"></path>
                <path d="M80,281 L160,281" id="Line-6" stroke="#DEDEDE" stroke-linecap="square"></path>
                <path d="M0,341 L80,341" id="Line-6" stroke="#DEDEDE" stroke-linecap="square"></path>
                <path d="M0,663 L80,663" id="Line-6" stroke="#DEDEDE" stroke-linecap="square"></path>
                <path d="M0,869 L80,869" id="Line-6" stroke="#DEDEDE" stroke-linecap="square"></path>
                <path d="M0,1135 L80,1135" id="Line-6" stroke="#DEDEDE" stroke-linecap="square"></path>
                <path d="M0,1315 L80,1315" id="Line-6" stroke="#DEDEDE" stroke-linecap="square"></path>
                <path d="M0,1551 L80,1551" id="Line-6" stroke="#DEDEDE" stroke-linecap="square"></path>
                <g id="Group-3" transform="translate(75.000000, 1546.000000)" fill="#4285F4" stroke="#4285F4" stroke-width="2">
                    <circle id="Oval-9" cx="5" cy="5" r="5"></circle>
                </g>
                <g id="Group-3" transform="translate(75.000000, 1310.000000)" fill="#4285F4">
                    <circle id="Oval-9" cx="5" cy="5" r="5"></circle>
                </g>
                <g id="Group-3" transform="translate(75.000000, 1130.000000)" fill="#4285F4">
                    <circle id="Oval-9" cx="5" cy="5" r="5"></circle>
                </g>
                <g id="Group-3" transform="translate(75.000000, 864.000000)" fill="#4285F4">
                    <circle id="Oval-9" cx="5" cy="5" r="5"></circle>
                </g>
                <circle id="Oval-9" fill="#4285F4" cx="80" cy="663" r="5"></circle>
                <path d="M80,517 L160,517" id="Line-6" stroke="#DEDEDE" stroke-linecap="square"></path>
                <path d="M81,810 L161,810" id="Line-6" stroke="#DEDEDE" stroke-linecap="square"></path>
                <path d="M81,1045 L161,1045" id="Line-6" stroke="#DEDEDE" stroke-linecap="square"></path>
                <path d="M81,1225 L161,1225" id="Line-6" stroke="#DEDEDE" stroke-linecap="square"></path>
                <path d="M81,1405 L161,1405" id="Line-6" stroke="#DEDEDE" stroke-linecap="square"></path>
                <g id="Group-3" transform="translate(75.000000, 1400.000000)" fill="#4285F4">
                    <circle id="Oval-9" cx="5" cy="5" r="5"></circle>
                </g>
                <circle id="Oval-9" fill="#4285F4" cx="80" cy="1225" r="5"></circle>
                <g id="Group-3" transform="translate(75.000000, 1040.000000)" fill="#4285F4">
                    <circle id="Oval-9" cx="5" cy="5" r="5"></circle>
                </g>
                <circle id="Oval-9" fill="#4285F4" cx="81" cy="809" r="5"></circle>
                <circle id="Oval-9" fill="#4285F4" cx="80" cy="517" r="5"></circle>
                <g id="Group-3" transform="translate(75.000000, 336.000000)" fill="#4285F4">
                    <circle id="Oval-9" cx="5" cy="5" r="5"></circle>
                </g>
                <circle id="Oval-9" fill="#4285F4" cx="80" cy="281" r="5"></circle>
                <circle id="Oval-9" fill="#4285F4" cx="80" cy="136" r="5"></circle>
                <g id="Group" transform="translate(80.000000, 20.500000) rotate(-360.000000) translate(-80.000000, -20.500000) translate(16.000000, 0.000000)" stroke="#DEDEDE">
                    <path d="M30.6257669,39.2638037 L0,39.2638037 L9.43495619,29.4224885 C11.9240355,26.8184292 13.8749356,24.6117426 15.2876563,22.8024286 C16.700377,20.9931147 17.7515085,19.4628071 18.4410507,18.2115058 C19.130593,16.9602046 19.5594546,15.945636 19.7276357,15.1678001 C19.8958167,14.3899642 19.9799072,13.7304947 19.9799072,13.1893914 C19.9799072,12.6144692 19.8874076,12.0564565 19.7024085,11.5153533 C19.5174094,10.97425 19.2399107,10.49233 18.8699124,10.0695931 C18.4999141,9.64685616 18.0542343,9.30866663 17.5328731,9.05502449 C17.0115119,8.80138235 16.3976511,8.67456128 15.6912908,8.67456128 C14.3458425,8.67456128 13.294711,9.11420766 12.5378963,9.99350042 C11.7810817,10.8727932 11.4026743,11.9719091 11.4026743,13.2908483 C11.4026743,13.6628568 11.4531286,14.20396 11.5540373,14.914158 L0.756814667,14.914158 C0.756814667,12.6821071 1.1184039,10.65297 1.84158236,8.82674656 C2.56476082,7.00052314 3.58225609,5.42794185 4.89406818,4.10900271 C6.20588027,2.79006357 7.76155487,1.775495 9.56109196,1.065297 C11.3606291,0.355099 13.3367562,0 15.4894735,0 C17.6085546,0 19.5678637,0.338189524 21.3674008,1.01456857 C23.1669379,1.69094762 24.7226125,2.63787828 26.0344246,3.85536057 C27.3462366,5.07284285 28.372141,6.51860307 29.1121375,8.19264121 C29.8521341,9.86667935 30.2221324,11.684448 30.2221324,13.6459473 C30.2221324,15.7427223 29.7764526,17.6788573 28.8850931,19.4543523 C27.9937336,21.2298473 26.5726039,23.047616 24.6217038,24.9076584 L18.3149149,30.8428845 L30.6257669,30.8428845 L30.6257669,39.2638037 Z" id="Stroke-1"></path>
                    <path d="M43.5416535,19.999415 C43.5416535,21.6744079 43.6928099,23.1986514 43.9951227,24.5721455 C44.2974356,25.9456397 44.7257121,27.1348847 45.2799524,28.1398804 C45.8341926,29.1448761 46.4976014,29.9237478 47.2701787,30.4764954 C48.042756,31.0292431 48.9161042,31.3056169 49.8902234,31.3056169 C50.8307523,31.3056169 51.695703,31.0292431 52.4850754,30.4764954 C53.2744479,29.9237478 53.9378566,29.1448761 54.4753017,28.1398804 C55.0127468,27.1348847 55.4326257,25.9456397 55.7349386,24.5721455 C56.0372515,23.1986514 56.1884079,21.6744079 56.1884079,19.999415 C56.1884079,18.357922 56.0372515,16.8420534 55.7349386,15.4518093 C55.4326257,14.0615652 55.0127468,12.8723203 54.4753017,11.8840745 C53.9378566,10.8958287 53.2744479,10.125332 52.4850754,9.57258431 C51.695703,9.01983666 50.8307523,8.74346283 49.8902234,8.74346283 C48.9161042,8.74346283 48.042756,9.01983666 47.2701787,9.57258431 C46.4976014,10.125332 45.8341926,10.8958287 45.2799524,11.8840745 C44.7257121,12.8723203 44.2974356,14.0615652 43.9951227,15.4518093 C43.6928099,16.8420534 43.5416535,18.357922 43.5416535,19.999415 Z M33.7668712,19.999415 C33.7668712,16.9844278 34.1615574,14.2458144 34.9509298,11.7835749 C35.7403023,9.32133538 36.8487828,7.21921931 38.2763712,5.47722672 C39.7039597,3.73523412 41.4002707,2.38686485 43.3653043,1.43211891 C45.3303379,0.477372971 47.5053109,0 49.8902234,0 C52.2415456,0 54.4081211,0.477372971 56.3899498,1.43211891 C58.3717785,2.38686485 60.0680895,3.73523412 61.4788828,5.47722672 C62.8896762,7.21921931 63.989759,9.32133538 64.7791315,11.7835749 C65.568504,14.2458144 65.9631902,16.9844278 65.9631902,19.999415 C65.9631902,23.0144022 65.568504,25.7530155 64.7791315,28.2152551 C63.989759,30.6774946 62.8896762,32.7879856 61.4788828,34.5467281 C60.0680895,36.3054707 58.3717785,37.6622149 56.3899498,38.6169608 C54.4081211,39.5717068 52.2415456,40.0490798 49.8902234,40.0490798 C47.5053109,40.0490798 45.3303379,39.5717068 43.3653043,38.6169608 C41.4002707,37.6622149 39.7039597,36.3054707 38.2763712,34.5467281 C36.8487828,32.7879856 35.7403023,30.6774946 34.9509298,28.2152551 C34.1615574,25.7530155 33.7668712,23.0144022 33.7668712,19.999415 Z" id="Stroke-3"></path>
                    <polygon id="Stroke-5" points="78.6764505 9.25667605 73.0306748 9.25667605 73.0306748 0.785276074 88.7361963 0.785276074 88.7361963 39.2638037 78.6764505 39.2638037"></polygon>
                    <path d="M109.285617,10.7301308 C109.285617,11.9055755 109.689162,12.9047035 110.496251,13.7275148 C111.30334,14.550326 112.295387,14.9617317 113.472393,14.9617317 C114.07771,14.9617317 114.632584,14.8441872 115.137014,14.6090983 C115.641445,14.3740093 116.078618,14.0633561 116.448534,13.6771386 C116.81845,13.290921 117.112702,12.8459312 117.331288,12.3421692 C117.549875,11.8384072 117.659168,11.3178531 117.659168,10.780507 C117.659168,9.63864645 117.255624,8.65631053 116.448534,7.83349925 C115.641445,7.01068797 114.649398,6.59928232 113.472393,6.59928232 C112.295387,6.59928232 111.30334,7.00229193 110.496251,7.80831115 C109.689162,8.61433036 109.285617,9.58827025 109.285617,10.7301308 Z M108.932515,27.5557819 C108.932515,28.1938805 109.050216,28.7983949 109.285617,29.3693252 C109.521018,29.9402554 109.840491,30.4356214 110.244035,30.8554231 C110.64758,31.2752248 111.126789,31.6110661 111.681663,31.8629471 C112.236537,32.1148281 112.833447,32.2407686 113.472393,32.2407686 C114.07771,32.2407686 114.657805,32.1148281 115.212679,31.8629471 C115.767553,31.6110661 116.255169,31.2752248 116.675528,30.8554231 C117.095887,30.4356214 117.423767,29.9486515 117.659168,29.3945133 C117.894569,28.840375 118.01227,28.2442567 118.01227,27.6061581 C118.01227,26.329961 117.566689,25.2468727 116.675528,24.3568932 C115.784367,23.4669136 114.716655,23.0219238 113.472393,23.0219238 C112.194501,23.0219238 111.118382,23.4669136 110.244035,24.3568932 C109.369689,25.2468727 108.932515,26.313169 108.932515,27.5557819 Z M106.460804,18.9918278 C102.492615,17.3462052 100.508521,14.5587221 100.508521,10.6293784 C100.508521,9.01733997 100.827994,7.56482618 101.466939,6.27183702 C102.105885,4.97884786 102.988639,3.86217541 104.115201,2.92181966 C105.241763,1.98566192 106.603726,1.25940502 108.201091,0.755643014 C109.798455,0.251881005 111.555556,0 113.472393,0 C115.38923,0 117.14633,0.251881005 118.743695,0.755643014 C120.341059,1.25940502 121.703022,1.98566192 122.829584,2.92181966 C123.956146,3.86217541 124.8389,4.97884786 125.477846,6.27183702 C126.116792,7.56482618 126.436264,9.01733997 126.436264,10.6293784 C126.436264,11.6369024 126.335378,12.535278 126.133606,13.3245052 C125.931834,14.1137323 125.587139,14.8357912 125.099523,15.4906818 C124.611906,16.1455724 123.972961,16.7584828 123.182686,17.3294131 C122.392411,17.9003434 121.408771,18.4544816 120.231766,18.9918278 C125.410589,21.0068758 128,24.2645368 128,28.7648107 C128,30.3768492 127.638491,31.8713431 126.915474,33.2482926 C126.192456,34.6252421 125.183595,35.8174789 123.888889,36.8250029 C122.594183,37.8325269 121.064076,38.6217541 119.298569,39.1926843 C117.533061,39.7636146 115.591002,40.0490798 113.472393,40.0490798 C111.421041,40.0490798 109.512611,39.7720106 107.747103,39.2178724 C105.981595,38.6637342 104.443081,37.8829031 103.131561,36.8753791 C101.820041,35.8678551 100.794365,34.6756183 100.054533,33.2986688 C99.3147012,31.9217193 98.9447853,30.4104333 98.9447853,28.7648107 C98.9447853,24.1637844 101.450125,20.9061234 106.460804,18.9918278 Z" id="Stroke-7"></path>
                </g>
                <text id="2月" font-family="SourceHanSansCN-Medium, Source Han Sans CN" font-size="24" font-weight="400" fill="#4285F4">
                    <tspan x="61" y="73">2月</tspan>
                </text>
            </g>
        </g>
    </g>
</svg>